<?xml version="1.0" encoding="utf-8"?>
<!-- Generator: Adobe Illustrator 24.3.0, SVG Export Plug-In . SVG Version: 6.00 Build 0)  -->
<svg version="1.1" id="Calque_1" xmlns="http://www.w3.org/2000/svg" xmlns:xlink="http://www.w3.org/1999/xlink" x="0px" y="0px"
	 viewBox="0 0 707 509" style="enable-background:new 0 0 707 509;" xml:space="preserve">
<style type="text/css">
	.st0{fill:#E6E7E8;}
	.st1{fill:#FFFFFF;}
	.st2{fill:#D1D3D4;}
	.st3{fill:#231F20;}
	.st4{fill:#94431A;}
	.st5{fill:#4db5ff;}
	.st6{fill:none;stroke:#231F20;stroke-miterlimit:10;}
</style>
<g>
	<path class="st0" d="M298.5,446.9c90.2,0,163.2-5.7,163.2-12.7c0-7-73.1-12.7-163.2-12.7c-90.2,0-163.2,5.7-163.2,12.7
		C135.3,441.2,208.3,446.9,298.5,446.9z"/>
	<path class="st1" d="M570.7,315.2H454.6v90h116.1V315.2z"/>
	<path class="st2" d="M570.7,406H454.6c-0.6,0-0.9-0.4-0.9-0.9v-90c0-0.5,0.4-0.9,0.9-0.9h116.1c0.6,0,0.9,0.4,0.9,0.9v90
		C571.6,405.5,571.2,406,570.7,406z M455.6,404.3h114.3V316H455.7L455.6,404.3z"/>
	<path class="st2" d="M570.7,327.6H454.6c-0.6,0-0.9-0.4-0.9-0.9s0.4-0.9,0.9-0.9h116.1c0.6,0,0.9,0.4,0.9,0.9
		C571.6,327.2,571.2,327.6,570.7,327.6z"/>
	<path class="st3" d="M251,147.3c-7,0.5-13.2-4.6-13.7-11.4c-0.2-3.1,0.9-6.2,2.8-8.6c-7-3.1-10.6-11-10.1-18.2
		c0.6-7.4,4.5-13.9,9.6-19.6c4.2-4.6,9.4-8.7,15.7-9.8c1.2-0.2,2.4-0.4,3.4-0.9c0.9-0.5,1.6-1.2,2.2-2.1
		c4.5-5.5,10.1-10.6,17.1-12.9c7-2.3,15.7-1,20.4,4.5c6.5-5.3,16.1-4.6,21.7,1.4c2.8,3.1,4.2,7.4,3.6,11.5
		c10.1,1.4,18.4,8.2,21.5,17.5c2.7,9.1-1.8,19.9-10.6,24.2c-1,0.5-2.2,1.2-2.2,2.3c0.2,0.7,0.4,1.2,0.9,1.7c2.9,4,1.4,9.5-1.8,13.1
		c-3.2,3.6-8.1,5.3-12.8,7.2c2.2,2.1,2.7,5.1,1.4,7.8c-1.4,2.6-3.4,4.6-6.2,6c-10.1,6.2-22.7,4.3-34.3,4.5
		c-10.5,0.2-20.9-6.2-27.9-13.4C250.5,150.7,249.4,148.1,251,147.3z"/>
	<path class="st3" d="M292.3,166.5c-1.8,0-3.6,0-5.4,0c-2.4,0-4.8-0.2-7.2,0c-9.6,0.2-20.2-5-28.7-13.7c-1.2-1.2-1.8-2.7-1.8-4.3
		v-0.2c-7.6-0.4-13.4-6.3-13-13.5c0.2-2.6,1-5,2.7-7c-6.3-3.2-10.3-10.8-9.8-18.6c0.6-6.7,3.8-13.4,9.9-20.1
		c5.2-5.9,10.5-9.1,16.3-10.1l0.6-0.2c1.8,0,3.4-1,4.4-2.4c5.8-7,11.6-11.4,17.7-13.3c7.6-2.4,16.1-0.7,20.7,4.2
		c7.2-5.3,17.3-4,22.9,2.7c2.6,3.1,3.6,6.9,3.4,10.6c10.1,1.7,18.4,8.6,21.3,18c2.7,9.8-2.2,20.9-11.2,25.3
		c-0.9,0.5-1.8,0.9-1.8,1.4c0.2,0.4,0.4,0.7,0.6,1l0.2,0.2c3.2,4.5,1.4,10.5-2,14.1c-3.4,3.1-7.4,5.5-11.9,7
		c1.6,2.4,1.8,5.3,0.8,7.9c-1.4,2.7-3.6,5-6.3,6.3C307.7,165.7,300.1,166.5,292.3,166.5z M281.9,164.6c1.8,0,3.4,0,5.2,0
		c9.2,0.2,18.6,0.4,26.3-4.5c2.6-1.4,4.5-3.2,5.8-5.7c1-2.3,0.8-5-1.2-6.9c-0.2-0.2-0.4-0.5-0.4-0.9c0-0.4,0.2-0.5,0.6-0.7
		c4.4-1.7,9.2-3.4,12.5-7c2.8-3.1,4.5-8.2,1.8-12l-0.2-0.2c-0.6-0.5-0.8-1.2-0.9-1.9c0-1.7,1.8-2.6,2.7-3.1
		c8.3-4.2,12.8-14.3,10.3-23.4c-2.9-8.9-11-15.4-20.7-16.9c-0.6,0-0.9-0.5-0.8-1c0.9-7.6-4.7-14.4-12.6-15.4
		c-4-0.5-8.1,0.7-11.2,3.2c-0.2,0.2-0.4,0.2-0.8,0.2c-0.2,0-0.6-0.2-0.6-0.4c-4.2-4.8-12.1-6.5-19.3-4.2c-5.8,1.9-11.4,6-16.8,12.5
		c-0.8,0.9-1.4,1.7-2.4,2.3c-0.9,0.6-2,0.9-3,0.9l-0.6,0.2c-5.2,1-10.1,4.2-15.2,9.7c-5.8,6.3-9,12.7-9.4,19
		c-0.6,7.6,3.4,14.6,9.6,17.5c0.2,0.2,0.4,0.4,0.6,0.5c0,0.4,0,0.5-0.2,0.7c-4.2,4.8-3.6,11.8,1.4,16c2.4,1.9,5.4,2.9,8.6,2.6
		c0.4,0,0.9,0.2,0.9,0.7c0.2,0.4,0,0.9-0.4,1c-0.2,0.2-0.4,0.4-0.4,0.5c0,1,0.6,2.3,1.4,2.9c8.1,8.4,18.4,13.4,27.3,13.3
		L281.9,164.6z"/>
	<path class="st3" d="M381.9,402.4c4.2,0,35.6,3.2,50.2,10.1c14.6,6.9,17.9,7.4,14.8,16.9c-3,9.5-28.7,11.6-48.4,8
		c-12.6-2.4-24.9-6.7-36.1-12.5L381.9,402.4z"/>
	<path class="st3" d="M416.9,440.1c-6.3,0-12.5-0.7-18.6-1.7c-12.6-2.6-25.1-6.7-36.5-12.5c-0.2-0.2-0.4-0.4-0.4-0.5
		c0-0.2,0-0.5,0.2-0.7l19.7-22.5c0.2-0.2,0.4-0.4,0.6-0.4h0.2c5,0,35.7,3.2,50.4,10.3l3.2,1.5c11.7,5.5,15,7,11.9,16.1
		C445.8,435.4,433.7,440.1,416.9,440.1z M363.6,424.7c11,5.5,22.7,9.7,35,12c19.7,3.4,44.8,1,47.4-7.6c2.6-7.9,0.8-8.7-11.2-14.3
		l-3.2-1.5c-13.9-6.5-43.8-9.9-49.2-10.1L363.6,424.7z"/>
	<path class="st4" d="M386.1,402.4c5.8,1.4,9.4,6.7,8.5,12.2c-1.4,9.9-23.5,10.3-24.7,10.5C368.6,425.3,386.1,402.4,386.1,402.4z"/>
	<path class="st3" d="M369.8,425.6c-0.4,0-0.8-0.2-0.8-0.5c-0.4-0.5-0.8-1.4,16.4-23.4c0.2-0.4,0.6-0.4,0.9-0.4
		c0.2,0,10.5,2.6,9.2,13.1C394,424.5,374,425.4,369.8,425.6z M386.4,403.1c-5.4,7-13.4,17.5-15.3,20.7c5-0.2,21.5-1.5,22.5-9.7
		C394.5,409.5,391.5,404.7,386.4,403.1z"/>
	<path class="st3" d="M222.7,425.1c-0.8,0.4-6.7,7.8-32.7,10.6c-26.1,2.9-35.7,8.2-41.7-4.8c-5.8-13.1-1.8-21.5,11-25.3
		c12.8-3.8,48.4-6.9,55.2-0.5C221.6,411.4,222.7,425.1,222.7,425.1z"/>
	<path class="st3" d="M161.2,440.2c-6.5,0-10.6-2.1-13.7-8.9c-3-6.9-3.4-12.7-1.2-17.1c2-4.2,6.3-7.2,12.8-9.1
		c12.1-3.4,48.8-7,56.2-0.4c7,6.3,8.3,19.8,8.3,20.5c0,0.4-0.2,0.5-0.4,0.7l-0.2,0.2c-7.6,6.5-22.1,9.5-32.9,10.6
		c-5.6,0.7-10.5,1.4-14.6,2.1C170.7,439.5,166,440.1,161.2,440.2z M195.1,402.4c-12.6,0-27.8,1.9-35.4,4.2c-6,1.7-9.9,4.5-11.9,8.2
		c-2,4.2-1.6,9.5,1.2,15.8c4.4,9.7,10.6,8.7,25.9,6.3c4.4-0.7,9.2-1.4,14.8-2.1c10.6-1.2,24.7-4,31.9-10.1
		c-0.2-2.3-1.8-13.5-7.8-18.8C211.4,403.2,203.9,402.4,195.1,402.4z"/>
	<path class="st4" d="M231,419.8c0,0-11.9,9.5-19.7,8.2c-8-1-18.8-5.1-14.4-13.4c4.4-8,32.7-13.1,32.7-13.1L231,419.8z"/>
	<path class="st3" d="M212.8,428.9c-0.6,0-1,0-1.4-0.2c-6-0.9-13-3.2-15.3-7.6c-1-2.3-1-4.8,0.4-7c4.5-8.4,32.1-13.3,33.4-13.4
		c0.2,0,0.6,0,0.8,0.2c0.2,0.2,0.4,0.4,0.4,0.5l1.4,18c0,0.4,0,0.5-0.4,0.7C231.1,420.7,220.7,428.9,212.8,428.9z M228.8,402.6
		c-4.8,0.9-27.5,5.5-31.3,12.4c-1,1.7-1.2,3.8-0.4,5.5c2,3.8,8.6,5.9,14.1,6.7c6.7,1,16.8-6.3,18.8-7.9L228.8,402.6z"/>
	<path class="st3" d="M373.4,340.6c0,0-12.5,46.4-58.1,55.3c-45.6,8.9-69.1,6.5-85.4-22.8s-5.4-47.3-5.4-47.3l143.9-2.7L373.4,340.6
		z"/>
	<path class="st3" d="M277.7,401.2c-22.1,0-37.2-7.2-48.6-27.8c-16.3-29.4-6-47.3-5.4-48.1c0.2-0.4,0.6-0.5,0.8-0.5l143.9-2.7
		c0.4,0,0.8,0.2,0.9,0.7l5,17.5c0,0.2,0,0.4,0,0.5c-0.2,0.5-13.2,47.1-58.8,55.8C301,399.5,288.5,401.2,277.7,401.2z M225,326.7
		c-1.4,2.9-8.6,19.9,5.8,46c16.4,29.7,40.2,30.9,84.3,22.3c43-8.4,56.3-51,57.4-54.5l-4.7-16.7L225,326.7z"/>
	<path class="st5" d="M213.8,341.1c0,0-23.7-72.4-20.4-118c3.2-45.6,20.9-47.1,45.2-49.6c10.8-1.2,68.1-9.3,89.5,14.8
		c21.5,24.1,59.2,136.6,59.2,136.6L213.8,341.1z"/>
	<path class="st4" d="M298.9,173.7l-3.6,24.2c0,0-8,12.5-24.1,6.2c-16.1-6.3-16.4-18-16.4-18l7.6-44.8c0,0,17-14.4,24.1-42
		c0,0,14.3,23.5,34.9,28.9c0,0-1.4,19.6-5,31.7C312.6,171.4,299,173.5,298.9,173.7z"/>
	<path class="st3" d="M279.7,206.6c-3,0-6.2-0.7-9-1.9c-16.4-6.5-17-18.4-17-18.8l7.8-45c0-0.2,0.2-0.4,0.4-0.5
		c0.2-0.2,16.8-14.6,23.9-41.8c0.2-0.4,0.4-0.5,0.8-0.7c0.4,0,0.8,0.2,0.9,0.4s14.3,23.4,34.3,28.5c0.4,0.2,0.8,0.5,0.8,0.9
		c0,0.2-1.4,19.8-5,31.9c-3,9.9-12.8,13.4-17.3,14.4l-3.6,23.7c0,0.2,0,0.2-0.2,0.4C292.3,203.4,286.3,206.6,279.7,206.6z
		 M263.2,141.6l-7.6,44.5c0,0.4,0.6,11,15.9,17.1c14.3,5.7,22.1-4.5,22.9-5.7l3.6-24.1c0-0.4,0.2-0.5,0.6-0.7
		c0.2-0.2,0.4-0.2,0.6-0.2c4-0.9,13.4-4,16.3-13.3c3.2-10.6,4.7-27.2,5-30.8c-17.1-4.7-29.8-21.6-33.4-27.3
		C279.9,125.8,265.2,139.7,263.2,141.6z"/>
	<path class="st4" d="M272.2,141.9c-0.2-2.3-1.2-4.5-2.7-6.2c-1.6-1.5-3.4-2.7-5.4-3.8c-1-0.7-2.2-1-3.4-1.2c-0.9,0-1.6,0.2-2.6,0.5
		c-2,0.5-3.6,1.9-4.7,3.4c-0.8,1.4-1,2.9-0.9,4.5c0,1.7,0,3.4,0.6,5c1.8,6.9,9,11,16.3,9.3c0.2,0,0.2,0,0.4,0"/>
	<path class="st3" d="M266,154.9c-6.5,0-12.3-4.3-13.9-10.3c-0.4-1.7-0.6-3.4-0.6-5.1s0.4-3.4,1-5c1-1.9,3-3.2,5-3.8
		c0.9-0.4,1.8-0.5,2.8-0.5c1.4,0.2,2.7,0.5,3.8,1.2c2.2,1,4,2.3,5.6,4c1.8,1.9,2.8,4.2,3,6.7c0,0.5-0.4,0.9-0.9,0.9
		c-0.6,0-0.9-0.4-0.9-0.9c-0.2-2.1-1-4.2-2.6-5.7c-1.4-1.4-3.2-2.6-5.2-3.4c-0.9-0.5-2-0.9-3-1c-0.8,0-1.4,0.2-2.2,0.4
		c-1.8,0.5-3.2,1.5-4.2,3.1c-0.6,1.2-0.9,2.7-0.9,4.2c0,1.5,0,3.2,0.6,4.8c1.6,6.3,8.5,10.1,15.2,8.6h0.2c0.6-0.2,0.9,0.2,1,0.7
		c0.2,0.5-0.2,0.9-0.8,1C268.4,154.7,267.1,154.7,266,154.9z"/>
	<path class="st4" d="M295.3,134.9c0,0,7.2,13.5,4.8,15.4c-2.4,1.9-8.1-0.2-8.1-0.2"/>
	<path class="st3" d="M297.2,152c-1.8,0-3.8-0.4-5.4-1c-0.6-0.2-0.8-0.7-0.6-1.2c0.2-0.5,0.8-0.7,1.2-0.5c1.2,0.5,5.4,1.5,7,0.4
		c0.9-0.7-1.4-7.6-5-14.4c-0.2-0.4,0-0.9,0.4-1.2c0.4-0.2,0.9,0,1.2,0.4c2.2,4.3,7.2,14.4,4.7,16.5
		C299.6,151.7,298.3,152.2,297.2,152z"/>
	<path class="st3" d="M286.4,131.9c0.1-1.6-0.8-3-1.9-3c-1.2-0.1-2.3,1.1-2.4,2.7s0.8,3,1.9,3C285.1,134.8,286.2,133.5,286.4,131.9z
		"/>
	<path class="st3" d="M308.9,134.9c0.1-1.6-0.8-2.9-1.9-3c-1.2-0.1-2.3,1.1-2.4,2.7c-0.1,1.6,0.8,2.9,1.9,3
		C307.8,137.8,308.8,136.5,308.9,134.9z"/>
	<path class="st3" d="M293.5,162.9c-2.9,0-5.6-0.5-8.1-1.7c-4.4-2.3-7.2-6.3-8.3-12.4c0-0.5,0.2-0.9,0.8-1c0.6,0,0.9,0.2,1,0.7
		c1,5.5,3.4,9.3,7.4,11.2c7.8,3.8,18.6-0.9,18.6-0.9c0.6-0.2,1,0,1.2,0.5c0.2,0.4,0,0.9-0.4,1.2C301.7,162,297.6,162.9,293.5,162.9z
		"/>
	<path class="st6" d="M296.3,190.2l2.6-16.7c0,0-16.4,1.4-24.9-5.1"/>
	<path class="st5" d="M220.2,177.5c-33.7-4-65.5,132.8-47.2,145.7c28.9,20.3,116.8-7.4,116.8-7.4l-8.8-36.1c0,0-63.4,2.9-64.6-9.5
		c-1-12.4,35.4-70.5,30.3-79C241.7,182.8,220.2,177.5,220.2,177.5z"/>
	<path class="st3" d="M338.3,280.7c-0.4,0-0.8-0.4-0.9-0.7c-4.4-29.2-13.9-77.9-17-80.9c-0.4-0.4-0.4-0.9,0-1.2c0.4-0.4,0.9-0.4,1,0
		c4,3.6,14.3,59.6,17.5,81.7C339.3,280.3,338.9,280.7,338.3,280.7z"/>
	<path class="st1" d="M305.9,349.7l-58.2-15.6l107.2-19.2l58.1,23.2L305.9,349.7z"/>
	<path class="st3" d="M305.9,350.6h-0.2L247.2,335c-0.6,0-0.9-0.4-0.9-0.9s0.4-0.9,0.9-0.9L354.4,314c0.2,0,0.4,0,0.6,0l58.1,23.2
		c0.4,0.2,0.6,0.5,0.6,0.9c0,0.4-0.4,0.7-0.8,0.7L305.9,350.6z M251.6,334.4l54.5,14.6l103.2-11.2l-54.5-22L251.6,334.4z"/>
	<path class="st4" d="M271.6,292.2c12.8,1.4,24.7,2.3,36.6,7c6.8,2.7,13.2,6.2,19.1,10.5c3,2.1,5.8,4.3,8.5,6.9c2,2.1,1.4,4.2-2,3.1
		c-4-1.2-7.8-2.9-11.2-5.1c8.3,6.3,15.5,13.9,21.7,22.2c0.8,0.9,1.4,2.3,0.6,3.1c-0.9,0.9-2.7,0-3.6-0.9l-18.1-16.3
		c4.8,4,8.8,8.6,12.1,13.7c0.6,0.7,0.9,1.7,0.4,2.4c-0.8,1.2-2.8,0.4-4-0.7c-5.4-5.1-10.3-10.8-14.8-16.9l9.8,13.9
		c-0.4,1-1.6,1.7-2.7,1.2c-1-0.4-2-1.2-2.7-2.1l-11.9-12.9l7,9.1c1,1.4,2.2,3.4,0.9,4.8c-1.2,1.4-4.2,0-5.8-1.4
		c-6.5-5.7-13.5-10.5-21.3-14.8c-2.7-1.5-5-3.6-8.1-4.5c-4.4-1.4-9.9-1-14.5-1.5"/>
	<path class="st4" d="M343.8,340.7c-1.2-0.2-2.4-0.7-3.2-1.5l-5.8-5.1c0.4,0.5,0.8,1.2,1,1.7c0.8,0.9,0.9,2.3,0.4,3.2
		c-0.4,0.5-0.9,0.9-1.6,1c-1.4,0-2.7-0.5-3.6-1.5c-1.2-1.2-2.4-2.3-3.6-3.4v0.2c-0.2,0.7-0.6,1.2-1,1.5c-0.8,0.5-1.8,0.5-2.7,0.4
		c-1.2-0.5-2.4-1.2-3-2.3l-2.2-2.4c0.6,1.2,0.4,2.6-0.6,3.4c-0.6,0.5-1.2,0.9-2.2,0.9c-2-0.2-3.6-1-5-2.4
		c-6.5-5.7-13.5-10.5-21.1-14.6c-0.9-0.5-1.8-1-2.7-1.7c-1.6-1.2-3.4-2.1-5.2-2.7c-3.2-0.7-6.5-1.2-9.8-1.2c-1.6-0.2-3-0.2-4.5-0.4
		c-0.6,0-0.8-0.5-0.8-0.9c0-0.5,0.6-0.7,0.9-0.7c1.4,0.2,2.8,0.2,4.5,0.4c3.4,0,6.8,0.5,10.1,1.4c2,0.7,4,1.7,5.8,2.9
		c0.9,0.5,1.6,1.2,2.6,1.7c7.8,4.2,14.8,9.1,21.3,14.8c0.9,1,2.4,1.5,3.6,1.9c0.4,0,0.8-0.2,0.9-0.4c0.9-1-0.4-3.1-0.9-3.8l-7-9.1
		c-0.4-0.4-0.2-0.9,0.2-1c0.4-0.4,0.9-0.4,1,0l11.9,12.9c0.6,0.7,1.4,1.4,2.4,1.7c0.4,0.2,0.9,0,1.2-0.2c0.2,0,0.2-0.2,0.4-0.2
		l-9.6-13.5c-0.2-0.4-0.2-0.9,0.2-1c0.4-0.2,0.9-0.2,1,0.2c4.4,6,9.2,11.6,14.6,16.9c0.6,0.7,1.4,1,2.4,1c0.2,0,0.4,0,0.4-0.2
		c0.2-0.4,0-0.9-0.4-1.5c-2.2-3.6-4.8-6.9-8-9.9l-4.2-3.8c-0.4-0.4-0.2-0.9,0.2-1.2c0.4-0.2,0.8-0.2,1,0c1.4,1.2,2.8,2.4,4.2,3.8
		l14.1,12.7c0.6,0.5,1.2,1,2.2,1c0.2,0,0.4,0,0.4-0.2c0.4-0.4,0-1.4-0.6-2.1c-6.2-8.2-13.4-15.6-21.7-22c-0.4-0.4-0.4-0.9,0-1.2
		c0.2-0.4,0.8-0.4,1-0.2c3.4,2.3,7,4,11,5.1c1.2,0.4,2,0.2,2.2,0c0.2-0.2,0-1-0.9-1.9c-2.6-2.4-5.2-4.8-8.3-6.7
		c-5.8-4.2-12.3-7.8-18.9-10.3c-10.8-4.3-21.5-5.3-33.1-6.5l-3.6-0.4c-0.6,0-0.8-0.5-0.8-0.9c0-0.5,0.6-0.7,0.9-0.7l3.6,0.4
		c11.6,1.2,22.3,2.3,33.4,6.7c6.8,2.7,13.4,6.2,19.3,10.5c3,2.1,6,4.5,8.5,7c1.2,1.4,1.8,2.9,1,3.8c-0.4,0.5-1.4,1.4-4,0.7
		c-1.4-0.5-2.8-1-4.4-1.5c5.8,5.1,11.2,11,15.9,17.1c1.2,1.7,1.4,3.1,0.6,4.2c-0.4,0.4-0.9,0.7-1.6,0.7L343.8,340.7L343.8,340.7z"/>
	<path class="st1" d="M413,338l26.7-68l-109.2,2.1L306,349.7L413,338z"/>
	<path class="st3" d="M305.9,350.6c-0.2,0-0.6-0.2-0.8-0.4c-0.2-0.2-0.2-0.5-0.2-0.9l24.5-77.5c0.2-0.4,0.6-0.7,0.9-0.7l109.2-2.1
		c0.4,0,0.6,0.2,0.8,0.4c0.2,0.2,0.2,0.5,0.2,0.9l-26.7,68c-0.2,0.4-0.4,0.5-0.8,0.5L305.9,350.6z M331.2,272.9l-23.9,75.8l105-11.4
		l25.9-66.5L331.2,272.9z"/>
	<path class="st3" d="M407.2,338.7c0,0,29.6,22.8,19.1,43.8c-10.5,20.9-199.6,45-199.6,45l-8.5-27.5
		C218,400.2,366.6,327.9,407.2,338.7z"/>
	<path class="st3" d="M226.7,428.3c-0.4,0-0.8-0.4-0.9-0.7l-8.5-27.5c-0.2-0.4,0-0.9,0.6-1c0.4-0.2,37.5-18.2,79.5-34.7
		c56.2-22.2,93.3-31.3,110.3-26.8c0.2,0,0.2,0.2,0.4,0.2c5.2,4.2,9.8,8.9,13.7,14.3c8.1,11.2,10.1,21.8,5.8,30.8
		C416.4,404.2,234.4,427.5,226.7,428.3z M219,400.5l8.1,25.9c13.2-1.7,188.3-24.7,198-44.3c9.8-19.4-16.4-40.9-18.8-42.8
		C368,329.6,230.3,395.2,219,400.5z"/>
	<path class="st3" d="M208.2,328.2c0,0,147,56.5,183.4,71.4l-21.1,31.1c0,0-135.7-2.6-174.5-35C157.2,363.3,159.5,309.4,208.2,328.2
		z"/>
	<path class="st3" d="M370.5,431.6c-0.4,0-34.5-0.7-72.7-5.3c-51.6-6.2-86.1-16.3-102.4-29.9c-20.4-17-34.7-46.7-23.5-64
		c3.6-5.7,13.5-14.1,36.8-5c1.4,0.5,147.4,56.6,183.4,71.4c0.2,0.2,0.4,0.4,0.6,0.5c0,0.2,0,0.5-0.2,0.7l-21.1,31.3
		C371.2,431.6,370.9,431.6,370.5,431.6z M190.1,325.1c-7.6,0-13.4,2.7-16.8,8.2c-8.6,13.4-1.4,41.4,23.1,61.8
		c37,30.9,164.5,34.6,173.5,34.7l20.4-29.9c-37.5-15.2-181.1-70.5-182.5-71.1C202.3,326.7,196.3,325.3,190.1,325.1z"/>
	<path class="st4" d="M413.4,310.9c0.2,0.9,0.6,1.5,1,2.3l2.8,4.2c-0.4-1.5-2-2.6-3.8-2.3c-0.2,0-0.4,0.2-0.6,0.2
		c-1.6,0.9-2.7,2.6-2.7,4.3s0.6,3.4,1.2,5.1c2,5,6.7,12.4,13.4,8.6c4.5-2.6,5.8-11.6,6.3-16.1c1.2-8.9-1.6-20.5-13.7-18.8
		c0.4,4.5,2,8.6,4.8,12C420.9,308.4,413,305.6,413.4,310.9z"/>
	<path class="st3" d="M421.4,335c-0.8,0-1.4-0.2-2.2-0.4c-4.4-1.4-7-6.7-8.3-9.8c-0.8-1.7-1.2-3.4-1.2-5.3c0-2.1,1-4.2,3-5
		c0.4-0.2,0.9-0.4,1.4-0.4l-0.4-0.5c-0.6-0.7-1-1.7-1.2-2.6c-0.4-1.4,0.6-2.9,1.8-3.4c1.8-0.5,4-0.4,5.6,0.4c-1.8-2.9-2.8-6.2-3-9.7
		c0-0.4,0.4-0.9,0.8-0.9c3.8-0.9,7.6,0.2,10.5,2.7c4.4,4.2,5,11.4,4.2,16.9c-0.8,5-2,14.1-6.8,16.9C424.3,334.6,422.9,335,421.4,335
		z M414.4,315.7c-0.4,0-0.6,0-0.9,0.2c-1.4,0.7-2.2,2.1-2.2,3.6c0,1.7,0.6,3.2,1.2,4.8c0.9,2.3,3.4,7.6,7.4,8.7
		c1.6,0.5,3.4,0.2,4.8-0.7c4.2-2.4,5.4-11.2,6-15.4c0.8-5.1,0.2-12-3.6-15.6c-2.2-1.9-5.2-2.9-8.1-2.4c0.6,4,2.2,7.8,4.7,10.8
		c0.4,0.4,0.2,0.9-0.2,1c-0.4,0.4-0.9,0.4-1,0c-1.2-1.2-5.2-2.7-7-1.9c-0.4,0.2-0.9,0.5-0.8,1.9c0.2,0.7,0.6,1.4,0.9,1.9l1.6,2.3
		c0.9,0.5,1.4,1.4,1.4,2.3c0,0.4-0.2,0.7-0.6,0.9c-0.4,0.2-0.8,0-0.9-0.4l-1-1.5C415.2,315.8,414.8,315.7,414.4,315.7z"/>
	<path class="st1" d="M372.2,393.1c-0.2,0-0.2,0-0.4,0c-3.2-1.2-79.1-29-96-39c-0.4-0.4-0.6-0.9-0.4-1.2c0.2-0.4,0.9-0.5,1.2-0.4
		c17,9.8,95,38.6,95.6,38.8c0.6,0.2,0.8,0.7,0.6,1.2C372.9,393,372.5,393.1,372.2,393.1z"/>
	<path class="st3" d="M283.9,279.5c16.8,0,30.3-12.2,30.3-27.3c0-15.1-13.5-27.3-30.3-27.3s-30.3,12.2-30.3,27.3
		C253.6,267.2,267.1,279.5,283.9,279.5z"/>
	<path class="st3" d="M283.9,280.1c-17.1,0-31.3-12.5-31.3-28.1s13.9-28.1,31.3-28.1c17.3,0,31.3,12.5,31.3,28.1
		S301,280.1,283.9,280.1z M283.9,225.7c-16.3,0-29.3,11.8-29.3,26.4c0,14.6,13.2,26.2,29.3,26.2c16.3,0,29.3-11.8,29.3-26.2
		C313.2,237.5,299.9,225.7,283.9,225.7z"/>
	<path class="st1" d="M267.8,260.9l-7.4-4.2v-5.3l7.4-4.2c2.6-1.3,4.8-2.7,7.4-4.2v6.5c-1.2,0.7-2.6,1.5-4,2.3
		c-1.4,0.7-2.6,1.3-4,2.3l4,2.1l4,2.1v6.5L267.8,260.9z"/>
	<path class="st1" d="M277.2,266.8l8.6-31.3l4.5,1.9l-8.6,31.3L277.2,266.8z"/>
	<path class="st1" d="M299.9,247.5l7.4,4.2v5.3l-7.4,4.2l-7.4,4.2v-6.5l4-2.1l4-2.1c-1.2-0.9-2.6-1.5-4-2.3c-1.2-0.7-2.6-1.5-4-2.3
		v-6.5L299.9,247.5z"/>
	<path class="st3" d="M221,328.8c-0.6,0-0.9-0.4-0.9-0.9s0.4-0.9,0.9-0.9l44-5.1l7-33.5l-56.3-4.5c-0.4,0-0.6-0.2-0.8-0.4
		c-0.2-0.2-0.2-0.5-0.2-0.7l23.1-82.1c0.2-0.5,0.8-0.7,1-0.7c0.6,0.2,0.8,0.7,0.8,1l-22.9,81.1l56.2,4.5c0.2,0,0.6,0.2,0.8,0.4
		c0.2,0.2,0.2,0.5,0.2,0.7l-7.4,35c0,0.4-0.4,0.7-0.8,0.7L221,328.8z"/>
	<path class="st0" d="M463.4,91.2H372v9h91.4V91.2z"/>
	<path class="st0" d="M565.2,91.2h-91.4v9h91.4V91.2z"/>
	<path class="st5" d="M463.4,106.7h-53.6v8.9h53.6V106.7z"/>
	<path class="st0" d="M555,106.7h-81.3v8.9H555V106.7z"/>
	<path class="st0" d="M463.2,122h-67.5v8.9h67.5L463.2,122L463.2,122z"/>
	<path class="st0" d="M511.8,122h-38.1v8.9h38.1V122z"/>
	<path class="st0" d="M463.2,137.4h-39.4v8.9h39.4V137.4z"/>
	<path class="st5" d="M548.5,137.4h-74.7v8.9h74.7V137.4z"/>
	<path class="st5" d="M463.4,152.8h-12.6v8.9h12.6V152.8z"/>
	<path class="st0" d="M524,152.8h-50.2v8.9H524V152.8z"/>
	<path class="st5" d="M461.6,216.3h-83.9v10.3h83.9V216.3z"/>
	<path class="st0" d="M526.8,216.3h-51.6v10.3h51.6V216.3z"/>
	<path class="st0" d="M461.6,233.9h-68.3v10.3h68.3V233.9z"/>
	<path class="st0" d="M550.3,233.9h-75.1v10.3h75.1V233.9z"/>
	<path class="st0" d="M461.6,251.6h-34.1v10.3h34.1V251.6z"/>
	<path class="st0" d="M564.6,251.6h-89.4v10.3h89.4V251.6z"/>
	<path class="st0" d="M461.6,269.1h-12.8v10.3h12.8V269.1z"/>
	<path class="st5" d="M570.2,269.1h-95v10.3h95V269.1z"/>
	<path class="st0" d="M538.9,286.8h-63.7v10.3h63.7V286.8z"/>
	<path class="st0" d="M507.6,193.9l-6.8-2.6V188l6.8-2.6l6.8-2.6v4.2c-1.2,0.5-2.6,1-3.6,1.4c-1.2,0.5-2.6,0.9-3.6,1.4l3.6,1.4
		l3.6,1.4v4.3L507.6,193.9z"/>
	<path class="st0" d="M516.4,197.7l8.1-19.9l4.4,1.2l-8.3,20.1L516.4,197.7z"/>
	<path class="st0" d="M537.7,185.3c2.4,0.9,4.5,1.7,6.8,2.6v3.4l-6.8,2.6l-6.8,2.6v-4.3l3.6-1.4l3.6-1.4c-1.2-0.5-2.6-1-3.6-1.4
		c-1.2-0.5-2.6-0.9-3.6-1.4v-3.9L537.7,185.3z"/>
	<path class="st0" d="M481.2,363.1c0.8,0,1.4-0.2,2-0.5c0.6-0.4,0.8-1.2,0.8-2.3V355c0-0.9,0.2-1.7,0.4-2.6c0.2-0.9,0.6-1.5,1-2.3
		c0.6-0.7,1.2-1.2,2-1.5c0.9-0.4,2-0.7,2.9-0.5h4.2v5.7H493c-0.8,0-1.2,0.2-1.6,0.7c-0.4,0.5-0.6,1.2-0.6,1.7v5.5
		c0,0.7-0.2,1.4-0.4,2.1c-0.2,0.5-0.6,1-0.9,1.4c-0.4,0.4-0.8,0.7-1.2,0.9c-0.4,0.2-0.8,0.4-1,0.4c0.4,0,0.8,0.2,1,0.4
		c0.4,0.2,0.9,0.5,1.2,0.9c0.9,0.9,1.2,2.3,1.2,3.4v5.5c0,0.7,0.2,1.2,0.6,1.7s1,0.9,1.6,0.9h1.4v5.7h-4.2c-1,0-2-0.2-2.9-0.5
		c-0.8-0.4-1.4-0.9-2-1.5c-0.6-0.7-0.9-1.4-1-2.3c-0.2-0.9-0.4-1.7-0.4-2.7v-5.3c0.2-0.9-0.2-1.7-0.8-2.3c-0.6-0.4-1.2-0.5-2-0.5
		L481.2,363.1L481.2,363.1z"/>
	<path class="st0" d="M544.5,369c-0.8,0-1.4,0.2-2,0.5c-0.6,0.7-0.9,1.5-0.8,2.3v5.3c0,0.9-0.2,1.7-0.4,2.7c-0.2,0.9-0.6,1.5-1,2.3
		c-0.6,0.7-1.2,1.2-2,1.5c-0.9,0.4-2,0.7-2.8,0.5h-4.2v-5.7h1.4c0.8,0,1.2-0.2,1.6-0.9c0.4-0.5,0.6-1.2,0.6-1.7v-5.5
		c0-0.7,0.2-1.4,0.4-2.1c0.2-0.5,0.6-1,0.9-1.4c0.4-0.4,0.8-0.5,1-0.9c0.4-0.2,0.8-0.4,1-0.4c-0.4,0-0.8-0.2-1-0.4
		c-0.4-0.2-0.9-0.5-1-0.9c-0.4-0.4-0.8-0.9-0.9-1.4c-0.4-0.7-0.4-1.4-0.4-2.1v-5.5c0-0.7-0.2-1.2-0.6-1.7c-0.4-0.5-1-0.9-1.6-0.7
		h-1.4v-5.5h4.2c1,0,2,0.2,2.8,0.5c0.8,0.4,1.4,0.9,2,1.5c0.6,0.7,0.9,1.4,1,2.3c0.2,0.9,0.4,1.7,0.4,2.6v5.3
		c-0.2,0.9,0.2,1.7,0.8,2.3c0.6,0.4,1.2,0.5,2,0.5V369z"/>
</g>
</svg>
